ply
format ascii 1.0
comment Created by Blender 3.3.1 - www.blender.org
element vertex 109
property float x
property float y
property float z
property float nx
property float ny
property float nz
element face 166
property list uchar uint vertex_indices
end_header
1.154484 -0.684936 -0.215484 0.707903 -0.596728 0.377874
0.826702 -1.050882 -0.460812 0.160596 -0.982652 0.092760
1.224633 -0.731664 -0.703742 0.811262 -0.480980 -0.332434
0.337259 -0.898739 -0.724086 -0.636540 -0.692423 -0.339657
0.311640 -0.732821 -0.240513 -0.701290 -0.659046 0.271753
0.219280 -0.104865 -0.530427 -0.893421 0.433043 -0.119470
0.840004 -0.581756 -1.146413 0.184283 -0.270327 -0.944967
0.264471 -0.138247 -0.924367 -0.712606 0.360511 -0.601851
1.313301 -0.128896 -0.551246 0.864580 0.280947 -0.416617
0.721332 0.181372 -0.530185 -0.097200 0.948797 -0.300561
0.860633 -0.003664 -0.968203 0.261699 0.646967 -0.716203
0.467918 0.085465 -0.354057 -0.480514 0.861065 -0.166350
0.573572 -0.694170 -0.009183 -0.080378 -0.803627 0.589681
-0.494969 0.476278 0.481049 0.424210 -0.231419 0.875495
-0.650347 0.007152 -0.158389 0.210212 -0.970861 -0.115062
-0.140572 0.476278 -0.156125 0.951461 -0.287262 -0.110464
-0.896123 0.221173 0.349002 -0.245048 -0.627614 0.738953
-1.261759 0.238643 -0.081432 -0.766720 -0.640329 -0.046035
-0.758420 0.326368 -0.611913 -0.029424 -0.536625 -0.843308
-1.103535 0.852393 -0.555255 -0.583679 0.332658 -0.740714
-0.565395 0.735933 -0.668881 0.361228 0.207126 -0.909183
-1.285278 0.849848 0.228270 -0.780304 0.338516 0.525863
-0.717846 1.040832 0.395254 0.071043 0.599721 0.797049
-0.862191 1.268390 -0.158389 -0.169638 0.972387 -0.160272
-0.250780 1.036900 -0.081432 0.783044 0.621967 -0.000388
-1.376877 0.605911 -0.081432 -0.995817 -0.001998 -0.091348
0.559025 -0.501001 0.600754 0.008116 -0.986508 0.163510
0.802367 -0.351330 0.884580 0.469308 -0.609197 0.639241
0.364288 -0.351330 0.919893 -0.361903 -0.610651 0.704366
0.314684 -0.431589 0.600754 -0.457861 -0.873024 0.167905
0.483521 -0.431590 0.368374 -0.268034 -0.943523 -0.194736
0.954377 -0.280579 0.600754 0.855215 -0.462382 0.234114
0.914102 0.090013 0.930910 0.661729 0.236001 0.711631
0.354753 0.090013 1.040477 -0.339412 0.249477 0.906951
0.143326 -0.244086 0.600754 -0.779015 -0.506910 0.369022
0.117006 -0.036235 0.744373 -0.835819 -0.006143 0.548971
0.974724 0.171615 0.600754 0.872326 0.468405 0.140161
0.878247 0.216034 0.357821 0.452315 0.848069 -0.276027
0.678202 0.429979 0.687341 0.246877 0.952226 0.179771
0.361350 0.359120 0.457136 -0.039154 0.968898 -0.244345
0.361350 0.359120 0.744372 -0.352465 0.818996 0.452785
0.163673 0.208109 0.600754 -0.757531 0.468182 0.454921
1.001044 -0.036235 0.457136 0.980339 -0.045453 0.192013
0.756700 -0.431590 0.457137 0.475503 -0.872425 0.113014
-0.569386 -0.448212 0.444520 0.488567 -0.643423 0.589330
-0.805513 -0.843769 0.037110 0.383116 -0.923605 -0.013287
-0.470936 -0.509058 0.037110 0.707248 -0.706965 0.000000
-1.198704 -0.872153 0.248121 -0.107129 -0.955877 0.273536
-1.676471 -0.668439 -0.153704 -0.648821 -0.693574 -0.313027
-1.180228 -0.627028 -0.584248 -0.043866 -0.666875 -0.743878
-1.380128 -0.143169 -0.732257 -0.360314 -0.022070 -0.932570
-0.569386 -0.448212 -0.370300 0.495340 -0.627517 -0.600717
-0.674641 -0.101640 -0.589836 0.347771 -0.027931 -0.937163
-1.132948 -0.507553 0.728589 -0.051011 -0.517110 0.854398
-1.016404 0.082398 0.809192 0.111135 0.296444 0.948562
-1.582805 0.178119 0.654734 -0.574230 0.340832 0.744374
-0.596833 0.305778 0.424582 0.320677 0.693238 0.645436
-1.268213 0.720369 0.137423 -0.177519 0.972574 0.150289
-0.722731 0.557571 0.037110 0.335669 0.941941 0.008605
-1.080060 0.423748 -0.584248 0.022110 0.653835 -0.756314
-0.596833 0.305778 -0.350362 0.455312 0.641957 -0.616914
-1.786914 0.304268 -0.179237 -0.803373 0.515788 -0.297581
-1.939104 -0.143170 0.037110 -0.999311 -0.003319 -0.036962
-0.674641 -0.101640 0.664056 0.457184 -0.044757 0.888245
-1.788648 -0.507549 0.248120 -0.773201 -0.497465 0.393305
1.486272 -0.356020 0.641650 0.572123 -0.328120 0.751673
1.358244 -0.818389 0.024024 0.447430 -0.894230 -0.012600
1.690381 -0.482170 -0.192322 0.815234 -0.488925 -0.310396
0.965052 -0.846773 0.235035 -0.103060 -0.921596 0.374217
0.770981 -0.818390 -0.166788 -0.326374 -0.908471 -0.261074
1.842572 -0.034731 0.024024 0.999311 0.003320 -0.036963
1.030809 -0.482173 -0.667454 0.027315 -0.532790 -0.845806
0.500301 -0.483679 -0.363448 -0.555581 -0.626781 -0.546329
0.578109 -0.076260 -0.602922 -0.380071 0.008057 -0.924922
1.283596 -0.034731 -0.745343 0.386691 0.036754 -0.921477
0.472854 0.270312 0.431434 -0.495340 0.627517 0.600718
1.083697 0.449128 0.645382 0.104897 0.647394 0.754902
0.708981 0.665869 0.024024 -0.383116 0.923605 0.013287
0.472854 0.270312 -0.383386 -0.488567 0.643423 -0.589329
0.374404 0.331158 0.024024 -0.707248 0.706965 -0.000000
1.579937 0.490538 -0.166790 0.661892 0.698630 -0.271691
1.036416 0.329652 -0.667455 -0.018030 0.537682 -0.842955
1.102172 0.694252 -0.186986 0.098869 0.966730 -0.235920
1.692116 0.329651 0.235034 0.751453 0.537203 0.383055
0.578109 -0.076260 0.650970 -0.428203 0.069490 0.901007
0.919872 -0.260298 0.796105 -0.103567 -0.246671 0.963549
0.500301 -0.483678 0.411496 -0.492969 -0.704220 0.510936
0.340478 -0.422829 0.024024 -0.671131 -0.741013 0.021967
-0.177141 -1.047396 0.296314 -0.089764 -0.963936 0.250540
-0.793653 -0.784522 0.270253 -0.662826 -0.684558 0.303385
-0.323912 -0.753856 -0.699983 -0.226641 -0.690596 -0.686812
0.330237 -1.010769 0.024024 0.406031 -0.913744 -0.014514
-0.938410 -0.576912 -0.248265 -0.780661 -0.528613 -0.333370
-1.132560 -0.106710 0.024024 -0.997888 -0.008742 0.064361
-0.676457 -0.053120 -0.784993 -0.575639 0.013781 -0.817588
0.758830 -0.576910 0.303199 0.815398 -0.485708 0.314981
0.955218 0.000469 0.024024 0.999953 0.004052 0.008788
0.233909 0.000470 1.016822 0.363106 0.040011 0.930888
-0.092289 -0.576913 0.916315 -0.034807 -0.512093 0.858225
-0.672787 0.307884 0.821013 -0.587469 0.307755 0.748443
0.233909 0.000469 -0.968774 0.345384 0.043546 -0.937451
0.438737 -0.576912 -0.695725 0.562248 -0.492599 -0.664246
0.616312 0.678281 0.270252 0.662698 0.687248 0.297526
0.761068 0.470670 -0.248266 0.786360 0.481195 -0.387414
-0.000201 0.941156 -0.248266 0.106294 0.954235 -0.279528
-0.085053 0.470672 -0.868267 -0.025369 0.546862 -0.836838
-0.507579 0.904529 0.024024 -0.414879 0.909208 0.034883
-0.936172 0.470670 -0.255151 -0.805401 0.520922 -0.282789
0.146570 0.647615 0.748031 0.200238 0.700415 0.685072
3 0 1 2
3 3 4 5
3 6 3 7
3 3 5 7
3 2 6 8
3 9 8 10
3 10 7 9
3 7 11 9
3 7 5 11
3 6 10 8
3 6 7 10
3 0 2 8
3 1 6 2
3 1 3 6
3 3 1 4
3 1 12 4
3 1 0 12
3 13 14 15
3 14 16 17
3 18 17 19
3 15 18 20
3 16 13 21
3 18 19 20
3 21 22 23
3 19 21 23
3 20 19 23
3 24 20 23
3 22 24 23
3 15 20 24
3 25 21 19
3 21 13 22
3 13 24 22
3 13 15 24
3 19 17 25
3 25 17 21
3 17 16 21
3 14 18 15
3 14 17 18
3 16 14 13
3 26 27 28
3 26 28 29
3 26 29 30
3 27 31 32
3 28 27 33
3 34 28 35
3 36 37 38
3 37 39 38
3 39 40 38
3 41 33 40
3 40 33 38
3 33 32 38
3 32 36 38
3 35 33 41
3 35 28 33
3 33 27 32
3 32 42 36
3 32 31 42
3 29 28 34
3 31 27 43
3 27 26 43
3 44 45 46
3 47 48 49
3 47 49 45
3 49 48 50
3 51 49 52
3 53 54 55
3 54 56 57
3 58 59 57
3 58 60 59
3 59 61 57
3 61 55 57
3 55 54 57
3 57 56 58
3 52 59 60
3 50 61 59
3 62 55 61
3 63 56 54
3 52 50 59
3 52 49 50
3 50 62 61
3 50 48 62
3 48 64 62
3 62 64 55
3 64 53 55
3 54 53 63
3 53 44 63
3 45 49 51
3 48 47 64
3 47 53 64
3 46 45 51
3 47 45 53
3 45 44 53
3 65 66 67
3 68 69 66
3 65 67 70
3 71 72 73
3 67 71 74
3 71 73 74
3 67 74 70
3 75 76 77
3 78 79 77
3 80 81 82
3 82 81 77
3 81 78 77
3 79 75 77
3 77 76 82
3 76 80 82
3 76 83 80
3 70 80 83
3 70 74 80
3 74 81 80
3 74 73 81
3 73 78 81
3 84 76 75
3 84 85 76
3 65 83 76
3 65 70 83
3 86 85 84
3 85 65 76
3 66 71 67
3 66 69 71
3 69 72 71
3 69 87 72
3 69 86 87
3 69 68 86
3 68 85 86
3 68 65 85
3 68 66 65
3 88 89 90
3 88 90 91
3 92 89 93
3 90 92 94
3 95 96 97
3 98 97 99
3 90 94 100
3 101 100 96
3 102 103 104
3 103 105 104
3 104 105 106
3 105 107 106
3 107 99 106
3 106 108 104
3 106 99 108
3 108 102 104
3 96 100 103
3 100 105 103
3 100 94 105
3 94 107 105
3 93 99 107
3 97 108 99
3 97 102 108
3 97 96 102
3 96 103 102
3 101 90 100
3 94 93 107
3 94 92 93
3 93 89 99
3 89 98 99
3 98 95 97
3 95 101 96
3 91 90 101
3 90 89 92
3 88 98 89
3 95 91 101
3 88 91 98
3 91 95 98
