ply
format ascii 1.0
comment Created by Blender 3.1.2 - www.blender.org
element vertex 8
property float x
property float y
property float z
property float nx
property float ny
property float nz
property uchar red
property uchar green
property uchar blue
property uchar alpha
element face 6
property list uchar uint vertex_indices
end_header
1.000000 1.000000 1.000000 0.577350 0.577350 0.577350 255 228 3 255
-1.000000 1.000000 1.000000 -0.577350 0.577350 0.577350 90 255 76 255
-1.000000 -1.000000 1.000000 -0.577350 -0.577350 0.577350 255 21 21 255
1.000000 -1.000000 1.000000 0.577350 -0.577350 0.577350 25 37 255 255
1.000000 -1.000000 -1.000000 0.577350 -0.577350 -0.577350 255 6 239 255
-1.000000 -1.000000 -1.000000 -0.577350 -0.577350 -0.577350 10 255 0 255
-1.000000 1.000000 -1.000000 -0.577350 0.577350 -0.577350 255 255 255 255
1.000000 1.000000 -1.000000 0.577350 0.577350 -0.577350 56 255 21 255
4 0 1 2 3
4 4 3 2 5
4 5 2 1 6
4 6 7 4 5
4 7 0 3 4
4 6 1 0 7
