ply
format ascii 1.0
comment Created by Blender 3.3.1 - www.blender.org
element vertex 83
property float x
property float y
property float z
property float nx
property float ny
property float nz
element face 127
property list uchar uint vertex_indices
end_header
0.133442 -0.163700 -2.656259 0.113393 -0.986303 -0.119785
0.154507 0.099544 -3.781996 0.375245 -0.897236 -0.232719
0.303506 -0.113491 -2.646986 0.731080 -0.678608 -0.070806
0.326261 -0.022123 -2.640604 0.993149 0.116316 0.011219
0.228819 0.197998 -3.809068 0.984854 -0.148600 -0.089332
0.252436 0.098977 -2.653108 0.790156 0.610654 0.052496
0.196406 0.326426 -3.780314 0.601272 0.793952 0.090072
0.174123 0.176334 -2.681838 0.309019 0.949074 0.061373
-0.003246 0.332191 -3.807760 -0.445125 0.883171 0.147897
0.046537 0.149697 -2.656812 -0.666518 0.744983 -0.027458
-0.085114 0.205537 -3.778846 -0.996006 -0.088563 0.011365
-0.015070 -0.043064 -2.646816 -0.995468 0.043651 -0.084491
-0.030988 0.159579 -3.805988 -0.570812 -0.802799 -0.172300
0.004225 -0.155858 -2.651327 -0.618933 -0.772226 -0.143488
0.055563 0.117343 -3.797704 -0.286509 -0.929792 -0.231082
-0.256244 -0.291142 -0.266058 -0.643026 -0.657595 -0.392539
0.069800 -0.134973 -0.727234 -0.042304 -0.974304 -0.221227
0.013687 -0.377870 -0.268875 -0.015882 -0.917510 -0.397396
-0.002729 -0.176726 -1.674809 -0.062667 -0.997677 0.026726
-0.183471 -0.127512 -1.691399 -0.741825 -0.669947 -0.029441
-0.338937 -0.020616 -0.268144 -0.920711 -0.009651 -0.390126
-0.113806 -0.065643 -0.754489 -0.766774 -0.609899 -0.200202
-0.212792 -0.004586 -1.659858 -0.998805 0.007987 -0.048216
-0.250774 0.254499 -0.263520 -0.726107 0.622701 -0.291568
-0.139765 0.104503 -0.721993 -0.987477 -0.003983 -0.157715
-0.156291 0.207923 -1.681226 -0.778998 0.618891 -0.100675
0.058335 0.398212 -0.221006 0.030181 0.982117 -0.185839
-0.135964 0.283106 -0.725621 -0.808991 0.580305 -0.093703
0.028057 0.289954 -1.697644 0.165541 0.981988 -0.091076
0.331277 0.229385 -0.265732 0.800441 0.561815 -0.208944
0.092244 0.390165 -0.743403 0.161020 0.982793 -0.090497
0.161696 0.144467 -1.671252 0.826777 0.560180 -0.051363
0.342094 0.107825 -0.761445 0.975514 0.177156 -0.130341
0.393841 -0.004685 -0.231623 0.969669 -0.059579 -0.237050
0.216718 0.024441 -1.676367 0.992260 0.122392 -0.020992
0.296630 -0.092521 -0.715573 0.722544 -0.666846 -0.182338
0.301782 -0.284675 -0.261070 0.655669 -0.656650 -0.372705
0.184802 -0.144128 -1.658278 0.671274 -0.741154 0.009022
0.364458 -0.389396 -0.000000 0.632296 -0.679903 -0.371393
-0.019270 -0.460271 -0.000000 -0.095843 -0.954452 -0.282551
0.478946 0.053057 -0.000000 0.948797 0.061395 -0.309861
0.346300 0.373292 -0.000000 0.608863 0.724004 -0.324197
-0.019270 0.445490 -0.000000 -0.146866 0.955374 -0.256301
-0.339505 0.312844 -0.000000 -0.673190 0.629777 -0.387551
-0.472151 -0.007391 -0.000000 -0.895376 0.008314 -0.445233
-0.339505 -0.327626 -0.000000 -0.697843 -0.634471 -0.332358
0.270836 0.220806 -0.736135 0.759130 0.639053 -0.123822
0.888010 -0.227662 -3.432746 0.610476 -0.729873 0.307579
0.722356 -0.095519 -2.952524 0.809700 0.365201 0.459363
0.707177 -0.180903 -2.935178 0.627738 -0.586396 0.511943
0.668750 -0.039597 -2.989981 0.233582 0.972333 -0.002798
0.225600 0.024653 -2.659173 -0.415364 0.679586 -0.604679
0.247636 0.056329 -2.589363 0.364194 0.915463 0.171143
0.210358 -0.121873 -2.578881 -0.077664 -0.988384 0.130636
0.218803 -0.089276 -2.497005 0.508942 -0.530212 0.678125
0.811468 -0.135191 -3.509742 -0.692267 0.622425 -0.365176
0.585696 -0.158392 -3.028273 -0.787942 -0.383329 -0.481878
0.602070 -0.073041 -3.016310 -0.566567 0.630106 -0.531006
0.910591 -0.144505 -3.429864 0.871537 0.399534 0.284245
0.197588 -0.078386 -2.660674 -0.660320 -0.438965 -0.609333
0.243090 0.005264 -2.493349 0.686144 0.191992 0.701674
0.834752 -0.248130 -3.473117 -0.297487 -0.953787 -0.042328
0.638803 -0.204846 -2.990598 -0.163091 -0.986398 0.020487
0.859688 -0.107031 -3.474651 0.029481 0.991667 -0.125411
-0.820418 0.185150 -2.795021 0.401905 -0.683000 -0.609904
-0.329937 0.175880 -2.376595 0.756204 0.327248 -0.566625
-0.342407 0.079082 -2.367788 0.535122 -0.629025 -0.563891
-0.057163 0.188115 -1.719994 0.128424 0.991639 0.012656
-0.464140 0.200754 -2.252504 -0.616254 0.590066 0.521587
-0.132245 0.147044 -1.622712 -0.679073 0.609031 0.409806
-0.433660 0.054532 -2.322260 -0.211616 -0.974952 -0.068468
-0.024853 -0.044019 -1.799339 0.521945 -0.723584 -0.451663
-0.107197 -0.080738 -1.721193 -0.357024 -0.934028 -0.011196
-0.922891 0.299589 -2.715230 -0.501009 0.579393 0.642879
-0.487574 0.106261 -2.268612 -0.770622 -0.429824 0.470523
-0.792495 0.284999 -2.797028 0.643878 0.451449 -0.617749
-0.390726 0.247696 -2.312378 0.208986 0.977881 -0.008529
-0.170714 -0.002779 -1.619413 -0.883727 -0.245312 0.398559
0.012872 0.095193 -1.800013 0.834572 0.317395 -0.450278
-0.892493 0.161831 -2.756658 -0.283017 -0.957637 0.053214
-0.857164 0.331884 -2.748323 0.053302 0.989513 0.134252
0.790206 -0.200828 -3.512292 -0.903704 -0.229019 -0.361758
-0.946876 0.219314 -2.710112 -0.700014 -0.282365 0.655935
3 0 1 2
3 1 3 2
3 4 5 3
3 6 7 5
3 7 8 9
3 9 10 11
3 11 12 13
3 13 14 0
3 15 16 17
3 13 18 19
3 20 21 15
3 11 19 22
3 23 24 20
3 25 11 22
3 26 27 23
3 28 9 25
3 29 30 26
3 5 28 31
3 32 29 33
3 34 5 31
3 35 33 36
3 2 34 37
3 16 36 17
3 0 37 18
3 17 38 39
3 38 33 40
3 40 29 41
3 41 26 42
3 42 23 43
3 43 20 44
3 20 45 44
3 15 39 45
3 16 37 35
3 37 32 35
3 32 31 46
3 31 30 46
3 28 27 30
3 25 24 27
3 22 21 24
3 21 18 16
3 47 48 49
3 50 51 52
3 53 49 54
3 55 56 57
3 58 50 48
3 57 59 51
3 48 52 60
3 56 61 62
3 59 62 53
3 49 60 54
3 63 57 50
3 62 47 49
3 64 65 66
3 67 68 69
3 70 71 72
3 73 74 68
3 75 76 65
3 68 77 69
3 78 76 67
3 74 79 70
3 74 72 77
3 66 78 71
3 80 68 76
3 70 64 66
3 0 14 1
3 1 4 3
3 4 6 5
3 9 8 10
3 11 10 12
3 13 12 14
3 15 21 16
3 13 0 18
3 20 24 21
3 11 13 19
3 23 27 24
3 25 9 11
3 26 30 27
3 28 7 9
3 29 46 30
3 5 7 28
3 32 46 29
3 34 3 5
3 35 32 33
3 2 3 34
3 16 35 36
3 0 2 37
3 17 36 38
3 38 36 33
3 40 33 29
3 41 29 26
3 42 26 23
3 43 23 20
3 20 15 45
3 15 17 39
3 16 18 37
3 37 34 32
3 32 34 31
3 31 28 30
3 28 25 27
3 25 22 24
3 22 19 21
3 21 19 18
3 6 8 7
3 47 58 48
3 50 57 51
3 53 62 49
3 55 81 56
3 58 63 50
3 57 56 59
3 48 50 52
3 56 81 61
3 59 56 62
3 49 48 60
3 63 55 57
3 62 61 47
3 64 75 65
3 67 76 68
3 70 66 71
3 73 82 74
3 75 80 76
3 68 74 77
3 78 65 76
3 74 82 79
3 74 70 72
3 66 65 78
3 80 73 68
3 70 79 64
