ply
format ascii 1.0
comment Created by Blender 3.3.1 - www.blender.org
element vertex 192
property float x
property float y
property float z
element face 292
property list uchar uint vertex_indices
end_header
0.434778 -0.001432 0.278610
0.434778 2.313067 0.278610
0.324713 2.313067 0.352773
0.324713 -0.001432 0.352773
0.182241 2.313067 0.371887
0.182241 -0.001432 0.371887
0.029053 2.313067 0.333043
0.029053 -0.001432 0.333043
-0.111529 2.313067 0.242154
-0.111529 -0.001432 0.242154
-0.218104 2.313067 0.113056
-0.218104 -0.001432 0.113056
-0.274445 2.313067 -0.034595
-0.274445 -0.001432 -0.034595
-0.271977 2.313067 -0.178322
-0.271977 -0.001432 -0.178322
-0.211074 2.313067 -0.296243
-0.211074 -0.001432 -0.296243
-0.101009 2.313067 -0.370407
-0.101009 -0.001432 -0.370407
0.041463 2.313067 -0.389521
0.041463 -0.001432 -0.389521
0.194651 2.313067 -0.350677
0.194651 -0.001432 -0.350677
0.335233 2.313067 -0.259787
0.335233 -0.001432 -0.259787
0.441808 2.313067 -0.130690
0.441808 -0.001432 -0.130690
0.498150 2.313067 0.016962
0.498150 -0.001432 0.016962
0.495681 2.313067 0.160689
0.495681 -0.001432 0.160689
0.108330 1.982206 -0.004860
-0.341991 2.098089 0.036579
-0.181036 2.098089 -0.431339
-0.657807 2.411129 0.065640
-0.330944 2.350205 0.488669
0.379817 2.098091 -0.309877
0.565480 2.098089 0.233112
0.119378 2.098089 0.447229
-0.796810 2.758142 0.547570
-0.383972 2.411128 -0.730434
-0.631361 2.350203 -0.389902
-0.954011 2.758142 -0.700790
0.570212 2.411131 -0.523787
0.169720 2.350204 -1.018676
0.368771 2.758142 -0.761969
0.886086 2.411128 0.400006
0.836970 2.350204 -0.071906
1.395020 2.720860 0.537080
0.127125 2.411129 0.764284
0.576530 2.350203 0.685205
0.274130 2.758142 1.024962
-0.799152 2.758142 -0.201396
-0.192087 2.758142 -0.883438
0.889638 2.790510 -0.418163
1.032753 2.758142 0.817941
-0.152111 2.758142 0.752250
-0.791416 3.008669 -0.272668
-0.862919 3.309048 -0.153752
-0.539562 3.418195 -0.412605
0.288876 3.105156 -0.997966
-0.316614 3.166081 -0.656423
0.097283 3.689343 -0.456948
0.874467 3.105156 -0.075360
0.662736 3.288834 -0.395913
0.558651 3.518305 -0.046298
0.510799 3.105156 0.821643
1.158140 3.166081 0.656210
0.397696 3.462567 0.421619
-0.461798 3.162929 0.767795
0.126208 3.166080 0.726640
-0.163157 3.626713 0.300158
0.108330 3.679857 -0.004860
-0.559329 1.317985 0.745261
-0.786115 1.376345 0.766130
-0.705056 1.376344 0.530483
-0.945162 1.533994 0.780766
-0.780552 1.503312 0.993806
-0.422607 1.376346 0.591652
-0.329105 1.376344 0.865106
-0.553766 1.376345 0.972936
-0.922839 1.708753 0.919740
-0.807257 1.533994 0.379856
-0.931844 1.503312 0.551350
-0.935284 1.708753 0.410635
-0.326722 1.533995 0.483925
-0.568333 1.503312 0.376872
-0.428169 1.708753 0.363974
-0.167645 1.533994 0.949155
-0.192380 1.503312 0.711496
-0.102314 1.708753 0.844238
-0.549864 1.533994 1.132608
-0.323540 1.503312 1.092783
-0.408037 1.708753 1.187720
-1.016345 1.708753 0.646284
-0.710622 1.708753 0.302802
-0.195820 1.708753 0.570782
-0.183375 1.708753 1.079887
-0.690490 1.708753 1.126548
-0.951014 1.883512 0.541368
-0.926279 1.914194 0.779026
-0.789554 2.041161 0.625416
-0.568795 1.883512 0.357914
-0.795119 1.914194 0.397739
-0.564893 2.041161 0.517586
-0.173497 1.883512 0.709757
-0.338107 1.914193 0.496716
-0.332544 2.041161 0.724392
-0.311402 1.883512 1.110666
-0.186815 1.914194 0.939172
-0.413603 2.041161 0.960039
-0.791937 1.883510 1.006597
-0.550326 1.914194 1.113650
-0.696052 2.041160 0.898870
-0.559329 2.099520 0.745261
0.164091 1.471565 0.362119
-0.587096 1.783976 0.788044
0.137773 1.405508 0.347802
0.081944 1.352265 0.306151
0.005103 1.319941 0.243508
-0.081052 1.313459 0.169409
-0.163403 1.333805 0.095135
-0.229415 1.377880 0.031995
-0.269036 1.438977 -0.010400
-0.276236 1.507792 -0.025596
-0.249918 1.573849 -0.011278
-0.194089 1.627093 0.030373
-0.117248 1.659416 0.093016
-0.031094 1.665898 0.167115
0.051258 1.645553 0.241388
0.117269 1.601477 0.304529
0.156891 1.540381 0.346924
0.414149 1.093794 0.097000
0.991414 1.677479 -0.716527
0.397854 1.167093 0.081399
0.350362 1.229233 0.038196
0.278901 1.270754 -0.026031
0.194351 1.285334 -0.101505
0.109584 1.270754 -0.176735
0.037505 1.229233 -0.240268
-0.010912 1.167093 -0.282432
-0.028297 1.093794 -0.296807
-0.012003 1.020494 -0.281206
0.035490 0.958354 -0.238003
0.106951 0.916833 -0.173776
0.191501 0.902253 -0.098303
0.276268 0.916833 -0.023073
0.348346 0.958354 0.040460
0.396764 1.020494 0.082624
0.738191 1.926257 -0.712514
0.964287 1.868075 -0.733319
0.883475 1.868075 -0.498388
1.122851 1.710905 -0.747910
0.958741 1.741493 -0.960303
0.601884 1.868074 -0.559371
0.508667 1.868075 -0.831994
0.732645 1.868075 -0.939497
1.100596 1.536677 -0.886463
0.985365 1.710905 -0.348219
1.109574 1.741494 -0.519193
1.113004 1.536677 -0.378905
0.506291 1.710903 -0.451972
0.747168 1.741494 -0.345244
0.607430 1.536677 -0.332386
0.347698 1.710905 -0.915788
0.372358 1.741494 -0.678851
0.282565 1.536677 -0.811190
0.728755 1.710905 -1.098684
0.503118 1.741494 -1.058980
0.587359 1.536677 -1.153628
1.193818 1.536677 -0.613837
0.889024 1.536677 -0.271400
0.375786 1.536677 -0.538565
0.363379 1.536677 -1.046123
0.868953 1.536677 -1.092642
1.128685 1.362449 -0.509240
1.104025 1.331861 -0.746176
0.967716 1.205279 -0.593033
0.747628 1.362449 -0.326344
0.973264 1.331860 -0.366048
0.743738 1.205279 -0.485530
0.353531 1.362449 -0.677117
0.517642 1.331861 -0.464724
0.512095 1.205279 -0.691708
0.491017 1.362449 -1.076808
0.366809 1.331860 -0.905835
0.592907 1.205279 -0.926639
0.970092 1.362451 -0.973056
0.729215 1.331861 -1.079783
0.874499 1.205280 -0.865656
0.738191 1.147097 -0.712514
4 0 1 2 3
4 3 2 4 5
4 5 4 6 7
4 7 6 8 9
4 9 8 10 11
4 11 10 12 13
4 13 12 14 15
4 15 14 16 17
4 17 16 18 19
4 19 18 20 21
4 21 20 22 23
4 23 22 24 25
4 25 24 26 27
4 27 26 28 29
16 2 1 30 28 26 24 22 20 18 16 14 12 10 8 6 4
4 29 28 30 31
4 31 30 1 0
16 0 3 5 7 9 11 13 15 17 19 21 23 25 27 29 31
3 32 33 34
3 35 33 36
3 32 34 37
3 32 37 38
3 32 38 39
3 35 36 40
3 41 42 43
3 44 45 46
3 47 48 49
3 50 51 52
3 35 40 53
3 41 43 54
3 44 46 55
3 47 49 56
3 50 52 57
3 58 59 60
3 61 62 63
3 64 65 66
3 67 68 69
3 70 71 72
3 72 69 73
3 72 71 69
3 71 67 69
3 69 66 73
3 69 68 66
3 68 64 66
3 66 63 73
3 66 65 63
3 65 61 63
3 63 60 73
3 63 62 60
3 62 58 60
3 60 72 73
3 60 59 72
3 59 70 72
3 57 71 70
3 57 52 71
3 52 67 71
3 56 68 67
3 56 49 68
3 49 64 68
3 55 65 64
3 55 46 65
3 46 61 65
3 54 62 61
3 54 43 62
3 43 58 62
3 53 59 58
3 53 40 59
3 40 70 59
3 52 56 67
3 52 51 56
3 51 47 56
3 49 55 64
3 49 48 55
3 48 44 55
3 46 54 61
3 46 45 54
3 45 41 54
3 43 53 58
3 43 42 53
3 42 35 53
3 40 57 70
3 40 36 57
3 36 50 57
3 39 51 50
3 39 38 51
3 38 47 51
3 38 48 47
3 38 37 48
3 37 44 48
3 37 45 44
3 37 34 45
3 34 41 45
3 36 39 50
3 36 33 39
3 33 32 39
3 34 42 41
3 34 33 42
3 33 35 42
3 74 75 76
3 77 75 78
3 74 76 79
3 74 79 80
3 74 80 81
3 77 78 82
3 83 84 85
3 86 87 88
3 89 90 91
3 92 93 94
3 77 82 95
3 83 85 96
3 86 88 97
3 89 91 98
3 92 94 99
3 100 101 102
3 103 104 105
3 106 107 108
3 109 110 111
3 112 113 114
3 114 111 115
3 114 113 111
3 113 109 111
3 111 108 115
3 111 110 108
3 110 106 108
3 108 105 115
3 108 107 105
3 107 103 105
3 105 102 115
3 105 104 102
3 104 100 102
3 102 114 115
3 102 101 114
3 101 112 114
3 99 113 112
3 99 94 113
3 94 109 113
3 98 110 109
3 98 91 110
3 91 106 110
3 97 107 106
3 97 88 107
3 88 103 107
3 96 104 103
3 96 85 104
3 85 100 104
3 95 101 100
3 95 82 101
3 82 112 101
3 94 98 109
3 94 93 98
3 93 89 98
3 91 97 106
3 91 90 97
3 90 86 97
3 88 96 103
3 88 87 96
3 87 83 96
3 85 95 100
3 85 84 95
3 84 77 95
3 82 99 112
3 82 78 99
3 78 92 99
3 81 93 92
3 81 80 93
3 80 89 93
3 80 90 89
3 80 79 90
3 79 86 90
3 79 87 86
3 79 76 87
3 76 83 87
3 78 81 92
3 78 75 81
3 75 74 81
3 76 84 83
3 76 75 84
3 75 77 84
3 116 117 118
3 118 117 119
3 119 117 120
3 120 117 121
3 121 117 122
3 122 117 123
3 123 117 124
3 124 117 125
3 125 117 126
3 126 117 127
3 127 117 128
3 128 117 129
3 129 117 130
3 130 117 131
16 116 118 119 120 121 122 123 124 125 126 127 128 129 130 131 132
3 131 117 132
3 132 117 116
3 133 134 135
3 135 134 136
3 136 134 137
3 137 134 138
3 138 134 139
3 139 134 140
3 140 134 141
3 141 134 142
3 142 134 143
3 143 134 144
3 144 134 145
3 145 134 146
3 146 134 147
3 147 134 148
16 133 135 136 137 138 139 140 141 142 143 144 145 146 147 148 149
3 148 134 149
3 149 134 133
3 150 151 152
3 153 151 154
3 150 152 155
3 150 155 156
3 150 156 157
3 153 154 158
3 159 160 161
3 162 163 164
3 165 166 167
3 168 169 170
3 153 158 171
3 159 161 172
3 162 164 173
3 165 167 174
3 168 170 175
3 176 177 178
3 179 180 181
3 182 183 184
3 185 186 187
3 188 189 190
3 190 187 191
3 190 189 187
3 189 185 187
3 187 184 191
3 187 186 184
3 186 182 184
3 184 181 191
3 184 183 181
3 183 179 181
3 181 178 191
3 181 180 178
3 180 176 178
3 178 190 191
3 178 177 190
3 177 188 190
3 175 189 188
3 175 170 189
3 170 185 189
3 174 186 185
3 174 167 186
3 167 182 186
3 173 183 182
3 173 164 183
3 164 179 183
3 172 180 179
3 172 161 180
3 161 176 180
3 171 177 176
3 171 158 177
3 158 188 177
3 170 174 185
3 170 169 174
3 169 165 174
3 167 173 182
3 167 166 173
3 166 162 173
3 164 172 179
3 164 163 172
3 163 159 172
3 161 171 176
3 161 160 171
3 160 153 171
3 158 175 188
3 158 154 175
3 154 168 175
3 157 169 168
3 157 156 169
3 156 165 169
3 156 166 165
3 156 155 166
3 155 162 166
3 155 163 162
3 155 152 163
3 152 159 163
3 154 157 168
3 154 151 157
3 151 150 157
3 152 160 159
3 152 151 160
3 151 153 160
