ply
format ascii 1.0
comment Created by Blender 3.3.1 - www.blender.org
element vertex 168
property float x
property float y
property float z
element face 320
property list uchar uint vertex_indices
end_header
0.088509 3.944818 3.546908
0.513832 4.015302 3.855919
-0.073946 4.015302 4.046903
0.812117 4.205706 4.072633
0.939157 4.168650 3.546908
-0.437221 4.015304 3.546908
-0.073946 4.015302 3.046912
0.513832 4.015302 3.237896
1.039567 4.416774 3.855920
-0.187879 4.205706 4.397557
0.351378 4.168649 4.355919
0.088509 4.416774 4.546907
-0.805917 4.205708 3.546908
-0.599680 4.168649 4.046905
-0.862549 4.416774 3.855920
-0.187879 4.205706 2.696259
-0.599680 4.168649 3.046911
-0.499276 4.416774 2.737891
0.812117 4.205706 3.021182
0.351378 4.168649 2.737896
0.676295 4.416774 2.737891
0.676295 4.416774 4.355925
-0.499276 4.416774 4.355925
-0.862549 4.416774 3.237895
0.088509 4.416774 2.546908
1.039567 4.416774 3.237895
0.364897 4.627842 4.397557
0.776699 4.664898 4.046905
0.250965 4.818245 4.046903
-0.635098 4.627842 4.072633
-0.174360 4.664899 4.355919
-0.336813 4.818245 3.855919
-0.635098 4.627842 3.021182
-0.762139 4.664898 3.546908
-0.336813 4.818245 3.237896
0.364897 4.627842 2.696259
-0.174360 4.664899 2.737896
0.250965 4.818245 3.046912
0.982935 4.627840 3.546908
0.776699 4.664898 3.046911
0.614239 4.818244 3.546908
0.088509 4.888730 3.546908
0.000000 3.666395 4.380630
0.425323 3.736879 4.689641
-0.162456 3.736879 4.880625
0.723607 3.927283 4.906355
0.850648 3.890227 4.380630
-0.525730 3.736881 4.380630
-0.162456 3.736879 3.880635
0.425323 3.736879 4.071619
0.951058 4.138351 4.689642
-0.276388 3.927283 5.231279
0.262869 3.890226 5.189641
0.000000 4.138351 5.380630
-0.894426 3.927285 4.380630
-0.688189 3.890226 4.880627
-0.951058 4.138351 4.689642
-0.276388 3.927283 3.529981
-0.688189 3.890226 3.880633
-0.587786 4.138351 3.571613
0.723607 3.927283 3.854904
0.262869 3.890226 3.571618
0.587786 4.138351 3.571613
0.587786 4.138351 5.189647
-0.587786 4.138351 5.189647
-0.951058 4.138351 4.071617
0.000000 4.138351 3.380630
0.951058 4.138351 4.071617
0.276388 4.349419 5.231279
0.688189 4.386475 4.880627
0.162456 4.539823 4.880625
-0.723607 4.349419 4.906355
-0.262869 4.386476 5.189641
-0.425323 4.539823 4.689641
-0.723607 4.349419 3.854904
-0.850648 4.386475 4.380630
-0.425323 4.539823 4.071619
0.276388 4.349419 3.529981
-0.262869 4.386476 3.571618
0.162456 4.539823 3.880635
0.894426 4.349417 4.380630
0.688189 4.386475 3.880633
0.525730 4.539821 4.380630
0.000000 4.610307 4.380630
-0.556681 3.621873 3.324862
-0.131358 3.691223 3.633873
-0.719136 3.691223 3.824857
0.166926 3.878561 3.850587
0.293967 3.842102 3.324862
-1.082411 3.691224 3.324862
-0.719136 3.691223 2.824867
-0.131358 3.691223 3.015851
0.394377 4.086232 3.633875
-0.833069 3.878561 4.175511
-0.293812 3.842101 4.133873
-0.556681 4.086232 4.324862
-1.451107 3.878563 3.324862
-1.244870 3.842101 3.824859
-1.507739 4.086232 3.633875
-0.833069 3.878561 2.474213
-1.244870 3.842101 2.824865
-1.144467 4.086232 2.515845
0.166926 3.878561 2.799137
-0.293812 3.842101 2.515850
0.031105 4.086232 2.515845
0.031105 4.086232 4.133879
-1.144467 4.086232 4.133879
-1.507739 4.086232 3.015849
-0.556681 4.086232 2.324862
0.394377 4.086232 3.015849
-0.280293 4.293902 4.175511
0.131508 4.330362 3.824859
-0.394225 4.481240 3.824857
-1.280288 4.293902 3.850587
-0.819550 4.330362 4.133873
-0.982004 4.481240 3.633873
-1.280288 4.293902 2.799137
-1.407329 4.330361 3.324862
-0.982004 4.481240 3.015851
-0.280293 4.293902 2.474213
-0.819550 4.330362 2.515850
-0.394225 4.481240 2.824867
0.337745 4.293900 3.324862
0.131508 4.330362 2.824865
-0.030951 4.481239 3.324862
-0.556681 4.550590 3.324862
0.643791 3.550277 3.341280
1.069114 3.620762 3.650291
0.481335 3.620762 3.841275
1.367398 3.811165 3.867005
1.494439 3.774109 3.341280
0.118061 3.620763 3.341280
0.481335 3.620762 2.841284
1.069114 3.620762 3.032268
1.594849 4.022233 3.650292
0.367403 3.811165 4.191929
0.906660 3.774108 4.150291
0.643791 4.022233 4.341280
-0.250635 3.811167 3.341280
-0.044398 3.774109 3.841276
-0.307267 4.022233 3.650292
0.367403 3.811165 2.490630
-0.044398 3.774109 2.841283
0.056005 4.022233 2.532263
1.367398 3.811165 2.815554
0.906660 3.774108 2.532268
1.231577 4.022233 2.532263
1.231577 4.022233 4.150296
0.056005 4.022233 4.150296
-0.307267 4.022233 3.032267
0.643791 4.022233 2.341280
1.594849 4.022233 3.032267
0.920179 4.233302 4.191929
1.331980 4.270358 3.841276
0.806247 4.423705 3.841275
-0.079816 4.233301 3.867005
0.380922 4.270359 4.150291
0.218468 4.423705 3.650291
-0.079816 4.233301 2.815554
-0.206857 4.270358 3.341280
0.218468 4.423705 3.032268
0.920179 4.233302 2.490630
0.380922 4.270359 2.532268
0.806247 4.423705 2.841284
1.538217 4.233299 3.341280
1.331980 4.270358 2.841283
1.169521 4.423704 3.341280
0.643791 4.494189 3.341280
3 0 1 2
3 3 1 4
3 0 2 5
3 0 5 6
3 0 6 7
3 3 4 8
3 9 10 11
3 12 13 14
3 15 16 17
3 18 19 20
3 3 8 21
3 9 11 22
3 12 14 23
3 15 17 24
3 18 20 25
3 26 27 28
3 29 30 31
3 32 33 34
3 35 36 37
3 38 39 40
3 40 37 41
3 40 39 37
3 39 35 37
3 37 34 41
3 37 36 34
3 36 32 34
3 34 31 41
3 34 33 31
3 33 29 31
3 31 28 41
3 31 30 28
3 30 26 28
3 28 40 41
3 28 27 40
3 27 38 40
3 25 39 38
3 25 20 39
3 20 35 39
3 24 36 35
3 24 17 36
3 17 32 36
3 23 33 32
3 23 14 33
3 14 29 33
3 22 30 29
3 22 11 30
3 11 26 30
3 21 27 26
3 21 8 27
3 8 38 27
3 20 24 35
3 20 19 24
3 19 15 24
3 17 23 32
3 17 16 23
3 16 12 23
3 14 22 29
3 14 13 22
3 13 9 22
3 11 21 26
3 11 10 21
3 10 3 21
3 8 25 38
3 8 4 25
3 4 18 25
3 7 19 18
3 7 6 19
3 6 15 19
3 6 16 15
3 6 5 16
3 5 12 16
3 5 13 12
3 5 2 13
3 2 9 13
3 4 7 18
3 4 1 7
3 1 0 7
3 2 10 9
3 2 1 10
3 1 3 10
3 42 43 44
3 45 43 46
3 42 44 47
3 42 47 48
3 42 48 49
3 45 46 50
3 51 52 53
3 54 55 56
3 57 58 59
3 60 61 62
3 45 50 63
3 51 53 64
3 54 56 65
3 57 59 66
3 60 62 67
3 68 69 70
3 71 72 73
3 74 75 76
3 77 78 79
3 80 81 82
3 82 79 83
3 82 81 79
3 81 77 79
3 79 76 83
3 79 78 76
3 78 74 76
3 76 73 83
3 76 75 73
3 75 71 73
3 73 70 83
3 73 72 70
3 72 68 70
3 70 82 83
3 70 69 82
3 69 80 82
3 67 81 80
3 67 62 81
3 62 77 81
3 66 78 77
3 66 59 78
3 59 74 78
3 65 75 74
3 65 56 75
3 56 71 75
3 64 72 71
3 64 53 72
3 53 68 72
3 63 69 68
3 63 50 69
3 50 80 69
3 62 66 77
3 62 61 66
3 61 57 66
3 59 65 74
3 59 58 65
3 58 54 65
3 56 64 71
3 56 55 64
3 55 51 64
3 53 63 68
3 53 52 63
3 52 45 63
3 50 67 80
3 50 46 67
3 46 60 67
3 49 61 60
3 49 48 61
3 48 57 61
3 48 58 57
3 48 47 58
3 47 54 58
3 47 55 54
3 47 44 55
3 44 51 55
3 46 49 60
3 46 43 49
3 43 42 49
3 44 52 51
3 44 43 52
3 43 45 52
3 84 85 86
3 87 85 88
3 84 86 89
3 84 89 90
3 84 90 91
3 87 88 92
3 93 94 95
3 96 97 98
3 99 100 101
3 102 103 104
3 87 92 105
3 93 95 106
3 96 98 107
3 99 101 108
3 102 104 109
3 110 111 112
3 113 114 115
3 116 117 118
3 119 120 121
3 122 123 124
3 124 121 125
3 124 123 121
3 123 119 121
3 121 118 125
3 121 120 118
3 120 116 118
3 118 115 125
3 118 117 115
3 117 113 115
3 115 112 125
3 115 114 112
3 114 110 112
3 112 124 125
3 112 111 124
3 111 122 124
3 109 123 122
3 109 104 123
3 104 119 123
3 108 120 119
3 108 101 120
3 101 116 120
3 107 117 116
3 107 98 117
3 98 113 117
3 106 114 113
3 106 95 114
3 95 110 114
3 105 111 110
3 105 92 111
3 92 122 111
3 104 108 119
3 104 103 108
3 103 99 108
3 101 107 116
3 101 100 107
3 100 96 107
3 98 106 113
3 98 97 106
3 97 93 106
3 95 105 110
3 95 94 105
3 94 87 105
3 92 109 122
3 92 88 109
3 88 102 109
3 91 103 102
3 91 90 103
3 90 99 103
3 90 100 99
3 90 89 100
3 89 96 100
3 89 97 96
3 89 86 97
3 86 93 97
3 88 91 102
3 88 85 91
3 85 84 91
3 86 94 93
3 86 85 94
3 85 87 94
3 126 127 128
3 129 127 130
3 126 128 131
3 126 131 132
3 126 132 133
3 129 130 134
3 135 136 137
3 138 139 140
3 141 142 143
3 144 145 146
3 129 134 147
3 135 137 148
3 138 140 149
3 141 143 150
3 144 146 151
3 152 153 154
3 155 156 157
3 158 159 160
3 161 162 163
3 164 165 166
3 166 163 167
3 166 165 163
3 165 161 163
3 163 160 167
3 163 162 160
3 162 158 160
3 160 157 167
3 160 159 157
3 159 155 157
3 157 154 167
3 157 156 154
3 156 152 154
3 154 166 167
3 154 153 166
3 153 164 166
3 151 165 164
3 151 146 165
3 146 161 165
3 150 162 161
3 150 143 162
3 143 158 162
3 149 159 158
3 149 140 159
3 140 155 159
3 148 156 155
3 148 137 156
3 137 152 156
3 147 153 152
3 147 134 153
3 134 164 153
3 146 150 161
3 146 145 150
3 145 141 150
3 143 149 158
3 143 142 149
3 142 138 149
3 140 148 155
3 140 139 148
3 139 135 148
3 137 147 152
3 137 136 147
3 136 129 147
3 134 151 164
3 134 130 151
3 130 144 151
3 133 145 144
3 133 132 145
3 132 141 145
3 132 142 141
3 132 131 142
3 131 138 142
3 131 139 138
3 131 128 139
3 128 135 139
3 130 133 144
3 130 127 133
3 127 126 133
3 128 136 135
3 128 127 136
3 127 129 136
