ply
format ascii 1.0
comment Created by Blender 3.1.2 - www.blender.org
element vertex 88
property float x
property float y
property float z
property float nx
property float ny
property float nz
element face 172
property list uchar uint vertex_indices
end_header
-0.344503 -0.106899 -2.313329 -0.227402 -0.366086 -0.902369
0.254658 0.065420 -2.430170 0.117100 0.333918 -0.935300
0.506020 -0.293147 -2.207084 0.256577 -0.653545 -0.712072
1.415955 0.064912 -1.957500 0.682402 0.234759 -0.692254
1.489208 -0.318759 -1.320762 0.626314 -0.661673 -0.412213
1.685851 0.084184 -1.268915 0.755991 0.456691 -0.468946
2.014675 -0.126122 -0.782958 0.847011 -0.450784 -0.281721
0.957233 -1.089151 -0.905606 0.548563 -0.732484 -0.403170
0.454708 -1.256676 -0.897711 0.314467 -0.579394 -0.751940
0.810208 -0.709404 -1.141590 0.198430 -0.678943 -0.706868
0.739686 -1.249709 -0.541415 0.733279 -0.660425 -0.161679
0.231851 -1.904112 -0.621845 0.345172 -0.656142 -0.671069
0.052641 -1.633897 -0.758536 -0.125337 -0.501719 -0.855902
-0.020753 -0.743329 -1.377161 -0.054437 -0.821800 -0.567170
1.364762 -0.324582 0.647285 0.648857 -0.714304 0.262210
2.074500 0.090083 0.068582 0.815899 0.446288 0.367607
1.608835 0.037777 0.559365 0.651028 0.602594 0.461566
1.955554 -0.191974 0.132568 0.664557 -0.670576 0.329684
1.393132 0.037777 1.383312 0.695639 0.362919 0.619981
1.210661 -0.322174 1.134609 0.515540 -0.757323 0.400850
0.514977 -0.286422 1.576757 0.196399 -0.652046 0.732300
0.507135 -1.581211 0.348922 0.567482 -0.396973 0.721371
0.342563 -2.052501 -0.027325 0.724491 -0.672984 0.149014
0.620568 -1.491335 -0.146730 0.896443 -0.432217 0.097866
0.745909 -0.723539 0.485115 0.487002 -0.736223 0.469898
0.089439 -1.345612 0.360167 -0.151343 -0.205997 0.966779
1.089500 -0.770651 -0.314462 0.722075 -0.674179 0.155208
-0.123718 -0.298339 1.611730 -0.079313 -0.740698 0.667140
-0.930959 0.037777 1.550149 -0.478267 0.407460 0.777970
-0.866234 -0.291222 1.300128 -0.369677 -0.736650 0.566290
-0.414258 0.037777 1.808618 -0.244057 0.383491 0.890714
-1.444312 -0.282136 0.794076 -0.598252 -0.674537 0.432544
-1.591571 0.097928 0.827036 -0.680877 0.564306 0.466866
-1.839477 -0.177971 0.145553 -0.909560 -0.349232 0.225249
-0.936850 -0.751093 -0.176985 -0.647517 -0.760967 0.040627
-0.611777 -1.317411 -0.262516 -0.922727 -0.385435 -0.003907
-0.326162 -1.310280 0.225784 -0.567958 -0.390773 0.724376
0.289486 -0.743127 0.679448 0.145385 -0.758988 0.634666
0.020776 -1.770522 0.330532 -0.106118 -0.303916 0.946770
-1.675519 -0.336500 -0.606829 -0.584710 -0.801094 -0.127917
-1.607249 0.010755 -1.680275 -0.787218 0.232620 -0.571118
-0.625318 -0.725192 -1.039731 -0.489154 -0.768474 -0.412524
-2.011082 0.043485 -0.744422 -0.920134 0.339776 -0.194694
-1.247727 0.059337 -1.332687 -0.190749 0.978669 -0.076297
-0.934732 -0.314137 -1.943344 -0.439937 -0.678719 -0.588044
-0.184171 -0.491687 -2.096484 -0.082543 -0.798590 -0.596188
-0.707720 0.065178 -2.205832 -0.451150 0.451390 -0.769877
-0.350659 -1.373304 -0.758204 -0.578963 -0.480139 -0.658991
-0.299529 -2.155551 -0.308846 -0.590419 -0.620041 -0.516676
-0.086080 -2.478361 -0.004677 -0.028230 -0.988131 0.150996
0.091215 -2.267556 0.130842 0.432047 -0.626772 0.648453
-0.260030 -2.240649 0.060849 -0.628987 -0.448921 0.634701
-0.470828 -1.954876 0.024811 -0.848546 -0.350907 0.396023
-0.278168 0.037777 -0.209083 -0.067344 0.961725 0.265612
-0.914878 0.210568 -1.267986 -0.408545 0.899155 -0.156882
-0.862298 0.231412 -0.781910 -0.241029 0.952301 0.187157
-0.302799 0.520691 -1.301783 -0.691666 0.721230 0.037756
-1.068480 0.101026 -0.360536 -0.040137 0.997003 0.066134
-1.736910 0.103204 0.106553 -0.534191 0.836882 0.119450
0.236277 0.037777 0.701510 0.000000 1.000000 0.000000
0.656348 0.037777 -0.098120 -0.090016 0.938824 0.332426
0.501631 0.037777 1.688231 0.182787 0.564157 0.805180
1.034499 0.275328 -1.269756 0.211651 0.909120 -0.358755
0.471459 0.267036 -1.698558 0.259037 0.876855 -0.405001
0.637660 0.376390 -1.207861 0.388045 0.836017 -0.387939
0.812177 0.491673 -0.567514 -0.357593 0.774774 0.521394
1.244986 0.398908 -0.324291 0.133241 0.887209 0.441710
1.002755 0.639249 -0.717163 0.151409 0.987377 0.046489
1.381545 0.288786 -0.765328 0.491441 0.865116 -0.100301
1.348978 0.284964 -1.076072 0.412841 0.860863 -0.297452
-0.505260 0.213488 -1.704558 -0.453211 0.841288 -0.294677
-0.221831 0.306144 -1.838428 -0.144762 0.814855 -0.561297
-0.274246 0.065420 -2.359878 -0.190936 0.445573 -0.874648
2.054775 0.091828 -0.677912 0.841046 0.502464 -0.200427
-0.148262 0.773865 -0.947432 -0.629750 0.752277 0.193636
0.101020 0.922236 -0.839739 -0.005632 0.985051 0.172168
0.312442 0.779166 -1.109731 0.602250 0.796507 -0.053586
-0.262315 0.721321 -1.533752 -0.446646 0.877243 -0.175931
-0.404757 0.197895 -0.782219 -0.375555 0.828436 0.415515
0.568488 0.537125 -0.913448 0.278275 0.956951 0.082508
0.115069 0.760356 -1.450921 0.171769 0.807792 -0.563886
-0.061115 0.654189 -0.643377 -0.436511 0.585062 0.683492
0.205810 0.801703 -0.757537 0.546483 0.604511 0.579589
0.344937 0.262088 -0.492076 -0.007373 0.721919 0.691938
0.077232 0.934717 -1.202342 0.017579 0.996660 -0.079754
-0.102879 0.422805 -0.489015 -0.317221 0.588659 0.743540
-0.269697 0.566033 -0.874217 -0.835254 0.474606 0.277670
-0.186512 0.743264 -1.152426 -0.728915 0.656675 -0.193548
3 0 1 2
3 3 4 2
3 5 6 4
3 7 8 9
3 8 10 11
3 9 12 13
3 14 15 16
3 14 6 17
3 6 15 17
3 14 18 19
3 18 20 19
3 21 22 23
3 24 25 21
3 24 23 26
3 27 28 29
3 20 30 27
3 28 31 29
3 32 33 31
3 34 35 36
3 36 25 37
3 36 38 25
3 39 40 41
3 40 42 43
3 33 42 39
3 40 44 41
3 44 0 45
3 40 46 44
3 46 0 44
3 41 12 47
3 47 12 48
3 41 35 34
3 48 35 47
3 48 11 49
3 11 50 49
3 50 51 49
3 50 52 51
3 51 48 49
3 53 32 28
3 54 55 56
3 57 58 32
3 59 16 60
3 28 59 53
3 59 61 18
3 62 63 64
3 65 66 67
3 68 5 69
3 70 43 54
3 63 1 71
3 71 72 46
3 13 45 2
3 9 4 7
3 4 26 7
3 26 14 24
3 26 6 14
3 19 37 24
3 37 29 36
3 29 34 36
3 44 13 41
3 2 1 3
3 2 45 0
3 0 72 1
3 9 2 4
3 3 5 4
3 5 73 6
3 7 10 8
3 7 26 10
3 9 8 12
3 8 11 12
3 14 17 15
3 6 73 15
3 14 16 18
3 18 61 20
3 24 21 23
3 21 38 22
3 24 37 25
3 21 25 38
3 26 23 10
3 23 22 10
3 27 30 28
3 20 61 30
3 28 32 31
3 32 58 33
3 36 35 52
3 74 75 76
3 36 52 38
3 40 39 42
3 33 58 42
3 40 43 46
3 46 72 0
3 41 13 12
3 41 47 35
3 48 52 35
3 48 12 11
3 11 22 50
3 11 10 22
3 50 38 52
3 22 38 50
3 48 51 52
3 53 57 32
3 43 42 57
3 57 42 58
3 59 18 16
3 28 30 59
3 59 30 61
3 5 62 69
3 60 16 15
3 66 73 68
3 71 70 77
3 63 3 1
3 71 1 72
3 13 2 9
3 4 6 26
3 14 19 24
3 19 20 37
3 37 27 29
3 37 20 27
3 29 31 34
3 31 33 34
3 34 39 41
3 34 33 39
3 44 45 13
3 55 78 56
3 59 60 53
3 79 60 65
3 77 56 80
3 81 82 75
3 82 76 75
3 60 76 83
3 76 80 84
3 53 83 85
3 86 74 87
3 64 76 79
3 74 84 87
3 53 60 83
3 78 85 86
3 67 64 79
3 67 79 65
3 67 66 68
3 67 69 62
3 67 68 69
3 60 66 65
3 67 62 64
3 62 3 63
3 68 73 5
3 5 3 62
3 66 15 73
3 79 76 60
3 64 63 76
3 60 15 66
3 76 82 83
3 85 82 81
3 85 83 82
3 74 85 81
3 56 78 86
3 56 87 84
3 56 86 87
3 56 84 80
3 71 80 63
3 53 55 57
3 56 77 70
3 56 70 54
3 43 55 54
3 70 46 43
3 71 46 70
3 76 63 80
3 86 85 74
3 74 76 84
3 78 53 85
3 71 77 80
3 53 78 55
3 43 57 55
3 74 81 75
